<svg width="64" height="64" viewBox="0 0 64 64" fill="none" xmlns="http://www.w3.org/2000/svg">
<rect width="64" height="64" fill="white"/>
<path d="M17.6665 50.33C24.1096 50.33 29.333 45.1075 29.333 38.665C29.333 32.2225 24.1096 27 17.6665 27C11.2234 27 6 32.2225 6 38.665C6 45.1075 11.2234 50.33 17.6665 50.33Z" fill="white" stroke="white" stroke-width="2"/>
<ellipse cx="17.6665" cy="32.74" rx="4.14808" ry="4.1475" fill="#B0B5B8"/>
<ellipse cx="17.6665" cy="43.9975" rx="7.70358" ry="5.3325" fill="#B0B5B8"/>
<path d="M46.6665 51.33C53.1096 51.33 58.333 46.1075 58.333 39.665C58.333 33.2225 53.1096 28 46.6665 28C40.2234 28 35 33.2225 35 39.665C35 46.1075 40.2234 51.33 46.6665 51.33Z" fill="white" stroke="white" stroke-width="2"/>
<ellipse cx="46.6665" cy="33.74" rx="4.14808" ry="4.1475" fill="#B0B5B8"/>
<ellipse cx="46.6665" cy="44.9975" rx="7.70358" ry="5.3325" fill="#B0B5B8"/>
<ellipse cx="31.6665" cy="37.74" rx="4.14808" ry="4.1475" fill="#B0B5B8"/>
<path d="M31.6665 55.33C33.9714 55.33 36.1016 54.685 37.6829 53.5904C39.2603 52.4985 40.3701 50.891 40.3701 48.9975C40.3701 47.104 39.2603 45.4965 37.6829 44.4046C36.1016 43.31 33.9714 42.665 31.6665 42.665C29.3616 42.665 27.2314 43.31 25.6501 44.4046C24.0727 45.4965 22.9629 47.104 22.9629 48.9975C22.9629 50.891 24.0727 52.4985 25.6501 53.5904C27.2314 54.685 29.3616 55.33 31.6665 55.33Z" fill="#B0B5B8" stroke="white" stroke-width="2"/>
<path d="M31.6665 32.33C38.1096 32.33 43.333 27.1075 43.333 20.665C43.333 14.2225 38.1096 9 31.6665 9C25.2234 9 20 14.2225 20 20.665C20 27.1075 25.2234 32.33 31.6665 32.33Z" fill="white" stroke="white" stroke-width="2"/>
<ellipse cx="31.6665" cy="14.74" rx="4.14808" ry="4.1475" fill="#B0B5B8"/>
<ellipse cx="31.6665" cy="25.9975" rx="7.70358" ry="5.3325" fill="#B0B5B8"/>
</svg>
