<svg width="61" height="37" viewBox="0 0 61 37" fill="none" xmlns="http://www.w3.org/2000/svg">
<rect width="61" height="37" rx="8" fill="#222222"/>
<path d="M14.36 25.24C13.28 25.24 12.2733 25.0667 11.34 24.72C10.42 24.36 9.62 23.8533 8.94 23.2C8.26 22.5467 7.72667 21.78 7.34 20.9C6.96667 20.02 6.78 19.0533 6.78 18C6.78 16.9467 6.96667 15.98 7.34 15.1C7.72667 14.22 8.26 13.4533 8.94 12.8C9.63333 12.1467 10.44 11.6467 11.36 11.3C12.28 10.94 13.2867 10.76 14.38 10.76C15.5933 10.76 16.6867 10.9733 17.66 11.4C18.6467 11.8133 19.4733 12.4267 20.14 13.24L18.06 15.16C17.58 14.6133 17.0467 14.2067 16.46 13.94C15.8733 13.66 15.2333 13.52 14.54 13.52C13.8867 13.52 13.2867 13.6267 12.74 13.84C12.1933 14.0533 11.72 14.36 11.32 14.76C10.92 15.16 10.6067 15.6333 10.38 16.18C10.1667 16.7267 10.06 17.3333 10.06 18C10.06 18.6667 10.1667 19.2733 10.38 19.82C10.6067 20.3667 10.92 20.84 11.32 21.24C11.72 21.64 12.1933 21.9467 12.74 22.16C13.2867 22.3733 13.8867 22.48 14.54 22.48C15.2333 22.48 15.8733 22.3467 16.46 22.08C17.0467 21.8 17.58 21.38 18.06 20.82L20.14 22.74C19.4733 23.5533 18.6467 24.1733 17.66 24.6C16.6867 25.0267 15.5867 25.24 14.36 25.24ZM26.8569 25.16C25.7102 25.16 24.6902 24.92 23.7969 24.44C22.9169 23.96 22.2169 23.3067 21.6969 22.48C21.1902 21.64 20.9369 20.6867 20.9369 19.62C20.9369 18.54 21.1902 17.5867 21.6969 16.76C22.2169 15.92 22.9169 15.2667 23.7969 14.8C24.6902 14.32 25.7102 14.08 26.8569 14.08C27.9902 14.08 29.0035 14.32 29.8969 14.8C30.7902 15.2667 31.4902 15.9133 31.9969 16.74C32.5035 17.5667 32.7569 18.5267 32.7569 19.62C32.7569 20.6867 32.5035 21.64 31.9969 22.48C31.4902 23.3067 30.7902 23.96 29.8969 24.44C29.0035 24.92 27.9902 25.16 26.8569 25.16ZM26.8569 22.6C27.3769 22.6 27.8435 22.48 28.2569 22.24C28.6702 22 28.9969 21.66 29.2369 21.22C29.4769 20.7667 29.5969 20.2333 29.5969 19.62C29.5969 18.9933 29.4769 18.46 29.2369 18.02C28.9969 17.58 28.6702 17.24 28.2569 17C27.8435 16.76 27.3769 16.64 26.8569 16.64C26.3369 16.64 25.8702 16.76 25.4569 17C25.0435 17.24 24.7102 17.58 24.4569 18.02C24.2169 18.46 24.0969 18.9933 24.0969 19.62C24.0969 20.2333 24.2169 20.7667 24.4569 21.22C24.7102 21.66 25.0435 22 25.4569 22.24C25.8702 22.48 26.3369 22.6 26.8569 22.6ZM48.6223 14.08C49.4757 14.08 50.229 14.2533 50.8823 14.6C51.549 14.9333 52.069 15.4533 52.4423 16.16C52.829 16.8533 53.0223 17.7467 53.0223 18.84V25H49.9023V19.32C49.9023 18.4533 49.7223 17.8133 49.3623 17.4C49.0023 16.9867 48.4957 16.78 47.8423 16.78C47.389 16.78 46.9823 16.8867 46.6223 17.1C46.2623 17.3 45.9823 17.6067 45.7823 18.02C45.5823 18.4333 45.4823 18.96 45.4823 19.6V25H42.3623V19.32C42.3623 18.4533 42.1823 17.8133 41.8223 17.4C41.4757 16.9867 40.9757 16.78 40.3223 16.78C39.869 16.78 39.4623 16.8867 39.1023 17.1C38.7423 17.3 38.4623 17.6067 38.2623 18.02C38.0623 18.4333 37.9623 18.96 37.9623 19.6V25H34.8423V14.24H37.8223V17.18L37.2623 16.32C37.6357 15.5867 38.1623 15.0333 38.8423 14.66C39.5357 14.2733 40.3223 14.08 41.2023 14.08C42.189 14.08 43.049 14.3333 43.7823 14.84C44.529 15.3333 45.0223 16.0933 45.2623 17.12L44.1623 16.82C44.5223 15.98 45.0957 15.3133 45.8823 14.82C46.6823 14.3267 47.5957 14.08 48.6223 14.08Z" fill="white"/>
</svg>
