<svg width="175" height="37" viewBox="0 0 175 37" fill="none" xmlns="http://www.w3.org/2000/svg">
<rect width="61" height="37" rx="8" fill="#222222"/>
<path d="M79.22 14.58C80.0733 14.58 80.8267 14.7533 81.48 15.1C82.1467 15.4333 82.6667 15.9533 83.04 16.66C83.4267 17.3533 83.62 18.2467 83.62 19.34V25.5H80.5V19.82C80.5 18.9533 80.32 18.3133 79.96 17.9C79.6 17.4867 79.0933 17.28 78.44 17.28C77.9867 17.28 77.58 17.3867 77.22 17.6C76.86 17.8 76.58 18.1067 76.38 18.52C76.18 18.9333 76.08 19.46 76.08 20.1V25.5H72.96V19.82C72.96 18.9533 72.78 18.3133 72.42 17.9C72.0733 17.4867 71.5733 17.28 70.92 17.28C70.4667 17.28 70.06 17.3867 69.7 17.6C69.34 17.8 69.06 18.1067 68.86 18.52C68.66 18.9333 68.56 19.46 68.56 20.1V25.5H65.44V14.74H68.42V17.68L67.86 16.82C68.2333 16.0867 68.76 15.5333 69.44 15.16C70.1333 14.7733 70.92 14.58 71.8 14.58C72.7867 14.58 73.6467 14.8333 74.38 15.34C75.1267 15.8333 75.62 16.5933 75.86 17.62L74.76 17.32C75.12 16.48 75.6933 15.8133 76.48 15.32C77.28 14.8267 78.1933 14.58 79.22 14.58ZM90.9566 25.66C90.0632 25.66 89.2632 25.4867 88.5566 25.14C87.8632 24.7933 87.3232 24.2667 86.9366 23.56C86.5499 22.84 86.3566 21.9267 86.3566 20.82V14.74H89.4766V20.36C89.4766 21.2533 89.6632 21.9133 90.0366 22.34C90.4232 22.7533 90.9632 22.96 91.6566 22.96C92.1366 22.96 92.5632 22.86 92.9366 22.66C93.3099 22.4467 93.6032 22.1267 93.8166 21.7C94.0299 21.26 94.1366 20.7133 94.1366 20.06V14.74H97.2566V25.5H94.2966V22.54L94.8366 23.4C94.4766 24.1467 93.9432 24.7133 93.2366 25.1C92.5432 25.4733 91.7832 25.66 90.9566 25.66ZM106.687 14.58C107.54 14.58 108.3 14.7533 108.967 15.1C109.647 15.4333 110.18 15.9533 110.567 16.66C110.954 17.3533 111.147 18.2467 111.147 19.34V25.5H108.027V19.82C108.027 18.9533 107.834 18.3133 107.447 17.9C107.074 17.4867 106.54 17.28 105.847 17.28C105.354 17.28 104.907 17.3867 104.507 17.6C104.12 17.8 103.814 18.1133 103.587 18.54C103.374 18.9667 103.267 19.5133 103.267 20.18V25.5H100.147V14.74H103.127V17.72L102.567 16.82C102.954 16.1 103.507 15.5467 104.227 15.16C104.947 14.7733 105.767 14.58 106.687 14.58ZM113.975 25.5V14.74H117.095V25.5H113.975ZM115.535 13.24C114.962 13.24 114.495 13.0733 114.135 12.74C113.775 12.4067 113.595 11.9933 113.595 11.5C113.595 11.0067 113.775 10.5933 114.135 10.26C114.495 9.92667 114.962 9.76 115.535 9.76C116.108 9.76 116.575 9.92 116.935 10.24C117.295 10.5467 117.475 10.9467 117.475 11.44C117.475 11.96 117.295 12.3933 116.935 12.74C116.588 13.0733 116.122 13.24 115.535 13.24ZM122.911 25.5L118.391 14.74H121.611L125.371 24H123.771L127.671 14.74H130.671L126.131 25.5H122.911ZM136.991 25.66C135.764 25.66 134.684 25.42 133.751 24.94C132.831 24.46 132.118 23.8067 131.611 22.98C131.104 22.14 130.851 21.1867 130.851 20.12C130.851 19.04 131.098 18.0867 131.591 17.26C132.098 16.42 132.784 15.7667 133.651 15.3C134.518 14.82 135.498 14.58 136.591 14.58C137.644 14.58 138.591 14.8067 139.431 15.26C140.284 15.7 140.958 16.34 141.451 17.18C141.944 18.0067 142.191 19 142.191 20.16C142.191 20.28 142.184 20.42 142.171 20.58C142.158 20.7267 142.144 20.8667 142.131 21H133.391V19.18H140.491L139.291 19.72C139.291 19.16 139.178 18.6733 138.951 18.26C138.724 17.8467 138.411 17.5267 138.011 17.3C137.611 17.06 137.144 16.94 136.611 16.94C136.078 16.94 135.604 17.06 135.191 17.3C134.791 17.5267 134.478 17.8533 134.251 18.28C134.024 18.6933 133.911 19.1867 133.911 19.76V20.24C133.911 20.8267 134.038 21.3467 134.291 21.8C134.558 22.24 134.924 22.58 135.391 22.82C135.871 23.0467 136.431 23.16 137.071 23.16C137.644 23.16 138.144 23.0733 138.571 22.9C139.011 22.7267 139.411 22.4667 139.771 22.12L141.431 23.92C140.938 24.48 140.318 24.9133 139.571 25.22C138.824 25.5133 137.964 25.66 136.991 25.66ZM144.268 25.5V14.74H147.248V17.78L146.828 16.9C147.148 16.14 147.661 15.5667 148.368 15.18C149.075 14.78 149.935 14.58 150.948 14.58V17.46C150.815 17.4467 150.695 17.44 150.588 17.44C150.481 17.4267 150.368 17.42 150.248 17.42C149.395 17.42 148.701 17.6667 148.168 18.16C147.648 18.64 147.388 19.3933 147.388 20.42V25.5H144.268ZM156.501 25.66C155.581 25.66 154.695 25.5533 153.841 25.34C153.001 25.1133 152.335 24.8333 151.841 24.5L152.881 22.26C153.375 22.5667 153.955 22.82 154.621 23.02C155.301 23.2067 155.968 23.3 156.621 23.3C157.341 23.3 157.848 23.2133 158.141 23.04C158.448 22.8667 158.601 22.6267 158.601 22.32C158.601 22.0667 158.481 21.88 158.241 21.76C158.015 21.6267 157.708 21.5267 157.321 21.46C156.935 21.3933 156.508 21.3267 156.041 21.26C155.588 21.1933 155.128 21.1067 154.661 21C154.195 20.88 153.768 20.7067 153.381 20.48C152.995 20.2533 152.681 19.9467 152.441 19.56C152.215 19.1733 152.101 18.6733 152.101 18.06C152.101 17.38 152.295 16.78 152.681 16.26C153.081 15.74 153.655 15.3333 154.401 15.04C155.148 14.7333 156.041 14.58 157.081 14.58C157.815 14.58 158.561 14.66 159.321 14.82C160.081 14.98 160.715 15.2133 161.221 15.52L160.181 17.74C159.661 17.4333 159.135 17.2267 158.601 17.12C158.081 17 157.575 16.94 157.081 16.94C156.388 16.94 155.881 17.0333 155.561 17.22C155.241 17.4067 155.081 17.6467 155.081 17.94C155.081 18.2067 155.195 18.4067 155.421 18.54C155.661 18.6733 155.975 18.78 156.361 18.86C156.748 18.94 157.168 19.0133 157.621 19.08C158.088 19.1333 158.555 19.22 159.021 19.34C159.488 19.46 159.908 19.6333 160.281 19.86C160.668 20.0733 160.981 20.3733 161.221 20.76C161.461 21.1333 161.581 21.6267 161.581 22.24C161.581 22.9067 161.381 23.5 160.981 24.02C160.581 24.5267 160.001 24.9267 159.241 25.22C158.495 25.5133 157.581 25.66 156.501 25.66ZM168.846 25.66C167.62 25.66 166.54 25.42 165.606 24.94C164.686 24.46 163.973 23.8067 163.466 22.98C162.96 22.14 162.706 21.1867 162.706 20.12C162.706 19.04 162.953 18.0867 163.446 17.26C163.953 16.42 164.64 15.7667 165.506 15.3C166.373 14.82 167.353 14.58 168.446 14.58C169.5 14.58 170.446 14.8067 171.286 15.26C172.14 15.7 172.813 16.34 173.306 17.18C173.8 18.0067 174.046 19 174.046 20.16C174.046 20.28 174.04 20.42 174.026 20.58C174.013 20.7267 174 20.8667 173.986 21H165.246V19.18H172.346L171.146 19.72C171.146 19.16 171.033 18.6733 170.806 18.26C170.58 17.8467 170.266 17.5267 169.866 17.3C169.466 17.06 169 16.94 168.466 16.94C167.933 16.94 167.46 17.06 167.046 17.3C166.646 17.5267 166.333 17.8533 166.106 18.28C165.88 18.6933 165.766 19.1867 165.766 19.76V20.24C165.766 20.8267 165.893 21.3467 166.146 21.8C166.413 22.24 166.78 22.58 167.246 22.82C167.726 23.0467 168.286 23.16 168.926 23.16C169.5 23.16 170 23.0733 170.426 22.9C170.866 22.7267 171.266 22.4667 171.626 22.12L173.286 23.92C172.793 24.48 172.173 24.9133 171.426 25.22C170.68 25.5133 169.82 25.66 168.846 25.66Z" fill="#222222"/>
<path d="M14.36 25.24C13.28 25.24 12.2733 25.0667 11.34 24.72C10.42 24.36 9.62 23.8533 8.94 23.2C8.26 22.5467 7.72667 21.78 7.34 20.9C6.96667 20.02 6.78 19.0533 6.78 18C6.78 16.9467 6.96667 15.98 7.34 15.1C7.72667 14.22 8.26 13.4533 8.94 12.8C9.63333 12.1467 10.44 11.6467 11.36 11.3C12.28 10.94 13.2867 10.76 14.38 10.76C15.5933 10.76 16.6867 10.9733 17.66 11.4C18.6467 11.8133 19.4733 12.4267 20.14 13.24L18.06 15.16C17.58 14.6133 17.0467 14.2067 16.46 13.94C15.8733 13.66 15.2333 13.52 14.54 13.52C13.8867 13.52 13.2867 13.6267 12.74 13.84C12.1933 14.0533 11.72 14.36 11.32 14.76C10.92 15.16 10.6067 15.6333 10.38 16.18C10.1667 16.7267 10.06 17.3333 10.06 18C10.06 18.6667 10.1667 19.2733 10.38 19.82C10.6067 20.3667 10.92 20.84 11.32 21.24C11.72 21.64 12.1933 21.9467 12.74 22.16C13.2867 22.3733 13.8867 22.48 14.54 22.48C15.2333 22.48 15.8733 22.3467 16.46 22.08C17.0467 21.8 17.58 21.38 18.06 20.82L20.14 22.74C19.4733 23.5533 18.6467 24.1733 17.66 24.6C16.6867 25.0267 15.5867 25.24 14.36 25.24ZM26.8569 25.16C25.7102 25.16 24.6902 24.92 23.7969 24.44C22.9169 23.96 22.2169 23.3067 21.6969 22.48C21.1902 21.64 20.9369 20.6867 20.9369 19.62C20.9369 18.54 21.1902 17.5867 21.6969 16.76C22.2169 15.92 22.9169 15.2667 23.7969 14.8C24.6902 14.32 25.7102 14.08 26.8569 14.08C27.9902 14.08 29.0035 14.32 29.8969 14.8C30.7902 15.2667 31.4902 15.9133 31.9969 16.74C32.5035 17.5667 32.7569 18.5267 32.7569 19.62C32.7569 20.6867 32.5035 21.64 31.9969 22.48C31.4902 23.3067 30.7902 23.96 29.8969 24.44C29.0035 24.92 27.9902 25.16 26.8569 25.16ZM26.8569 22.6C27.3769 22.6 27.8435 22.48 28.2569 22.24C28.6702 22 28.9969 21.66 29.2369 21.22C29.4769 20.7667 29.5969 20.2333 29.5969 19.62C29.5969 18.9933 29.4769 18.46 29.2369 18.02C28.9969 17.58 28.6702 17.24 28.2569 17C27.8435 16.76 27.3769 16.64 26.8569 16.64C26.3369 16.64 25.8702 16.76 25.4569 17C25.0435 17.24 24.7102 17.58 24.4569 18.02C24.2169 18.46 24.0969 18.9933 24.0969 19.62C24.0969 20.2333 24.2169 20.7667 24.4569 21.22C24.7102 21.66 25.0435 22 25.4569 22.24C25.8702 22.48 26.3369 22.6 26.8569 22.6ZM48.6223 14.08C49.4757 14.08 50.229 14.2533 50.8823 14.6C51.549 14.9333 52.069 15.4533 52.4423 16.16C52.829 16.8533 53.0223 17.7467 53.0223 18.84V25H49.9023V19.32C49.9023 18.4533 49.7223 17.8133 49.3623 17.4C49.0023 16.9867 48.4957 16.78 47.8423 16.78C47.389 16.78 46.9823 16.8867 46.6223 17.1C46.2623 17.3 45.9823 17.6067 45.7823 18.02C45.5823 18.4333 45.4823 18.96 45.4823 19.6V25H42.3623V19.32C42.3623 18.4533 42.1823 17.8133 41.8223 17.4C41.4757 16.9867 40.9757 16.78 40.3223 16.78C39.869 16.78 39.4623 16.8867 39.1023 17.1C38.7423 17.3 38.4623 17.6067 38.2623 18.02C38.0623 18.4333 37.9623 18.96 37.9623 19.6V25H34.8423V14.24H37.8223V17.18L37.2623 16.32C37.6357 15.5867 38.1623 15.0333 38.8423 14.66C39.5357 14.2733 40.3223 14.08 41.2023 14.08C42.189 14.08 43.049 14.3333 43.7823 14.84C44.529 15.3333 45.0223 16.0933 45.2623 17.12L44.1623 16.82C44.5223 15.98 45.0957 15.3133 45.8823 14.82C46.6823 14.3267 47.5957 14.08 48.6223 14.08Z" fill="white"/>
</svg>
